<svg xmlns="http://www.w3.org/2000/svg" xmlns:xlink="http://www.w3.org/1999/xlink" width="195" zoomAndPan="magnify" viewBox="0 0 146.25 212.999993" height="284" preserveAspectRatio="xMidYMid meet" version="1.0"><defs><clipPath id="782ac10c76"><path d="M 46 73.101562 L 111.21875 73.101562 L 111.21875 130 L 46 130 Z M 46 73.101562 " clip-rule="nonzero"/></clipPath><clipPath id="d6be07298d"><path d="M 34.363281 77 L 97 77 L 97 140 L 34.363281 140 Z M 34.363281 77 " clip-rule="nonzero"/></clipPath></defs><g clip-path="url(#782ac10c76)"><path fill="#ffffff" d="M 66.257812 108.539062 L 59.058594 98.214844 C 56.671875 94.796875 44.246094 103.46875 46.628906 106.886719 L 60.027344 126.09375 C 62.410156 129.511719 67.160156 130.355469 70.574219 127.972656 C 71.546875 127.292969 72.304688 126.421875 72.84375 125.445312 L 72.851562 125.449219 C 72.851562 125.449219 72.867188 125.414062 72.882812 125.382812 C 73.054688 125.0625 73.207031 124.738281 73.332031 124.398438 C 76.085938 118.464844 90.6875 88.488281 111.082031 73.089844 C 111.082031 73.089844 85.402344 73.738281 66.257812 108.539062 Z M 66.257812 108.539062 " fill-opacity="1" fill-rule="nonzero"/></g><g clip-path="url(#d6be07298d)"><path fill="#ffffff" d="M 89.6875 101.21875 C 90.433594 103.613281 90.835938 106.160156 90.835938 108.796875 C 90.835938 122.859375 79.390625 134.300781 65.328125 134.300781 C 51.265625 134.300781 39.824219 122.859375 39.824219 108.796875 C 39.824219 94.734375 51.265625 83.289062 65.328125 83.289062 C 70.300781 83.289062 74.941406 84.726562 78.867188 87.195312 C 80.429688 85.859375 81.945312 84.640625 83.332031 83.570312 C 78.25 79.933594 72.039062 77.785156 65.328125 77.785156 C 48.230469 77.785156 34.316406 91.695312 34.316406 108.796875 C 34.316406 125.894531 48.230469 139.808594 65.328125 139.808594 C 82.429688 139.808594 96.339844 125.894531 96.339844 108.796875 C 96.339844 103.949219 95.21875 99.355469 93.226562 95.265625 C 92.167969 96.890625 90.960938 98.875 89.6875 101.21875 Z M 89.6875 101.21875 " fill-opacity="1" fill-rule="nonzero"/></g></svg>